<svg width="80" height="42" viewBox="0 0 80 42" fill="none" xmlns="http://www.w3.org/2000/svg">
<path d="M48.668 40C48.54 40 48.428 39.956 48.332 39.868C48.244 39.78 48.2 39.668 48.2 39.532V31.096C48.2 30.968 48.244 30.86 48.332 30.772C48.428 30.676 48.54 30.628 48.668 30.628C48.796 30.628 48.904 30.676 48.992 30.772C49.088 30.86 49.136 30.968 49.136 31.096V39.112H53.828C53.956 39.112 54.064 39.156 54.152 39.244C54.248 39.324 54.296 39.428 54.296 39.556C54.296 39.684 54.248 39.792 54.152 39.88C54.064 39.96 53.956 40 53.828 40H48.668ZM58.5658 40.06C57.9498 40.06 57.3978 39.916 56.9098 39.628C56.4218 39.332 56.0337 38.932 55.7458 38.428C55.4658 37.924 55.3258 37.356 55.3258 36.724C55.3258 36.084 55.4698 35.512 55.7578 35.008C56.0538 34.504 56.4538 34.108 56.9578 33.82C57.4618 33.524 58.0298 33.376 58.6618 33.376C59.2938 33.376 59.8578 33.524 60.3538 33.82C60.8578 34.108 61.2538 34.504 61.5418 35.008C61.8378 35.512 61.9898 36.084 61.9978 36.724L61.6258 37.012C61.6258 37.588 61.4898 38.108 61.2178 38.572C60.9538 39.028 60.5898 39.392 60.1258 39.664C59.6698 39.928 59.1498 40.06 58.5658 40.06ZM58.6618 39.22C59.1258 39.22 59.5378 39.112 59.8978 38.896C60.2658 38.68 60.5538 38.384 60.7617 38.008C60.9778 37.624 61.0858 37.196 61.0858 36.724C61.0858 36.244 60.9778 35.816 60.7617 35.44C60.5538 35.064 60.2658 34.768 59.8978 34.552C59.5378 34.328 59.1258 34.216 58.6618 34.216C58.2058 34.216 57.7938 34.328 57.4258 34.552C57.0578 34.768 56.7658 35.064 56.5498 35.44C56.3338 35.816 56.2258 36.244 56.2258 36.724C56.2258 37.196 56.3338 37.624 56.5498 38.008C56.7658 38.384 57.0578 38.68 57.4258 38.896C57.7938 39.112 58.2058 39.22 58.6618 39.22ZM61.5298 40C61.3938 40 61.2818 39.96 61.1938 39.88C61.1058 39.792 61.0618 39.68 61.0618 39.544V37.492L61.2898 36.544L61.9978 36.724V39.544C61.9978 39.68 61.9538 39.792 61.8658 39.88C61.7778 39.96 61.6658 40 61.5298 40ZM67.1188 40.06C66.4948 40.06 65.9308 39.916 65.4268 39.628C64.9308 39.34 64.5348 38.948 64.2388 38.452C63.9508 37.948 63.8028 37.384 63.7948 36.76V31.096C63.7948 30.952 63.8348 30.84 63.9148 30.76C64.0028 30.672 64.1188 30.628 64.2628 30.628C64.3988 30.628 64.5068 30.672 64.5868 30.76C64.6748 30.84 64.7188 30.952 64.7188 31.096V34.624C64.9828 34.248 65.3308 33.948 65.7628 33.724C66.2028 33.492 66.6908 33.376 67.2268 33.376C67.8428 33.376 68.3948 33.524 68.8828 33.82C69.3708 34.108 69.7548 34.504 70.0348 35.008C70.3228 35.512 70.4668 36.08 70.4668 36.712C70.4668 37.352 70.3188 37.924 70.0228 38.428C69.7348 38.932 69.3388 39.332 68.8348 39.628C68.3308 39.916 67.7588 40.06 67.1188 40.06ZM67.1188 39.22C67.5828 39.22 67.9988 39.112 68.3668 38.896C68.7348 38.672 69.0228 38.372 69.2308 37.996C69.4468 37.62 69.5548 37.192 69.5548 36.712C69.5548 36.24 69.4468 35.816 69.2308 35.44C69.0228 35.056 68.7348 34.756 68.3668 34.54C67.9988 34.324 67.5828 34.216 67.1188 34.216C66.6628 34.216 66.2508 34.324 65.8828 34.54C65.5148 34.756 65.2268 35.056 65.0188 35.44C64.8108 35.816 64.7068 36.24 64.7068 36.712C64.7068 37.192 64.8108 37.62 65.0188 37.996C65.2268 38.372 65.5148 38.672 65.8828 38.896C66.2508 39.112 66.6628 39.22 67.1188 39.22Z" fill="#F2EDFF"/>
<path d="M29.0864 26.12C28.5744 26.12 28.0984 26.048 27.6584 25.904C27.2264 25.752 26.8504 25.54 26.5304 25.268C26.2104 24.996 25.9664 24.68 25.7984 24.32C25.7344 24.192 25.7304 24.076 25.7864 23.972C25.8504 23.86 25.9544 23.784 26.0984 23.744C26.2104 23.712 26.3184 23.724 26.4224 23.78C26.5344 23.836 26.6184 23.92 26.6744 24.032C26.7944 24.264 26.9704 24.472 27.2024 24.656C27.4344 24.84 27.7104 24.984 28.0304 25.088C28.3504 25.184 28.7024 25.232 29.0864 25.232C29.5104 25.232 29.8864 25.164 30.2144 25.028C30.5424 24.884 30.7984 24.68 30.9824 24.416C31.1744 24.144 31.2704 23.816 31.2704 23.432C31.2704 22.944 31.0904 22.524 30.7304 22.172C30.3704 21.82 29.8064 21.596 29.0384 21.5C28.1024 21.388 27.3704 21.1 26.8424 20.636C26.3144 20.164 26.0504 19.588 26.0504 18.908C26.0504 18.42 26.1784 17.996 26.4344 17.636C26.6984 17.276 27.0584 17 27.5144 16.808C27.9704 16.608 28.4944 16.508 29.0864 16.508C29.5264 16.508 29.9264 16.58 30.2864 16.724C30.6464 16.86 30.9584 17.044 31.2224 17.276C31.4944 17.5 31.7144 17.748 31.8824 18.02C31.9624 18.148 31.9864 18.272 31.9544 18.392C31.9304 18.512 31.8624 18.604 31.7504 18.668C31.6304 18.724 31.5064 18.732 31.3784 18.692C31.2584 18.652 31.1664 18.576 31.1024 18.464C30.9824 18.28 30.8304 18.108 30.6464 17.948C30.4704 17.78 30.2544 17.648 29.9984 17.552C29.7424 17.456 29.4344 17.404 29.0744 17.396C28.4424 17.396 27.9344 17.532 27.5504 17.804C27.1664 18.068 26.9744 18.456 26.9744 18.968C26.9744 19.24 27.0464 19.492 27.1904 19.724C27.3344 19.948 27.5704 20.144 27.8984 20.312C28.2344 20.472 28.6824 20.592 29.2424 20.672C30.2424 20.816 30.9824 21.124 31.4624 21.596C31.9504 22.06 32.1944 22.668 32.1944 23.42C32.1944 23.852 32.1144 24.236 31.9544 24.572C31.8024 24.908 31.5824 25.192 31.2944 25.424C31.0144 25.648 30.6824 25.82 30.2984 25.94C29.9224 26.06 29.5184 26.12 29.0864 26.12ZM34.4997 28.808C34.3557 28.808 34.2397 28.764 34.1517 28.676C34.0717 28.596 34.0317 28.484 34.0317 28.34V22.676C34.0397 22.052 34.1877 21.492 34.4757 20.996C34.7717 20.492 35.1677 20.096 35.6637 19.808C36.1677 19.52 36.7317 19.376 37.3557 19.376C37.9957 19.376 38.5677 19.524 39.0717 19.82C39.5757 20.108 39.9717 20.504 40.2597 21.008C40.5557 21.512 40.7037 22.084 40.7037 22.724C40.7037 23.356 40.5597 23.924 40.2717 24.428C39.9917 24.932 39.6077 25.332 39.1197 25.628C38.6317 25.916 38.0797 26.06 37.4637 26.06C36.9277 26.06 36.4397 25.948 35.9997 25.724C35.5677 25.492 35.2197 25.188 34.9557 24.812V28.34C34.9557 28.484 34.9117 28.596 34.8237 28.676C34.7437 28.764 34.6357 28.808 34.4997 28.808ZM37.3557 25.22C37.8197 25.22 38.2357 25.112 38.6037 24.896C38.9717 24.68 39.2597 24.384 39.4677 24.008C39.6837 23.624 39.7917 23.196 39.7917 22.724C39.7917 22.244 39.6837 21.816 39.4677 21.44C39.2597 21.064 38.9717 20.768 38.6037 20.552C38.2357 20.328 37.8197 20.216 37.3557 20.216C36.8997 20.216 36.4877 20.328 36.1197 20.552C35.7517 20.768 35.4637 21.064 35.2557 21.44C35.0477 21.816 34.9437 22.244 34.9437 22.724C34.9437 23.196 35.0477 23.624 35.2557 24.008C35.4637 24.384 35.7517 24.68 36.1197 24.896C36.4877 25.112 36.8997 25.22 37.3557 25.22ZM45.4081 26.06C44.7921 26.06 44.2401 25.916 43.7521 25.628C43.2641 25.332 42.8761 24.932 42.5881 24.428C42.3081 23.924 42.1681 23.356 42.1681 22.724C42.1681 22.084 42.3121 21.512 42.6001 21.008C42.8961 20.504 43.2961 20.108 43.8001 19.82C44.3041 19.524 44.8721 19.376 45.5041 19.376C46.1361 19.376 46.7001 19.524 47.1961 19.82C47.7001 20.108 48.0961 20.504 48.3841 21.008C48.6801 21.512 48.8321 22.084 48.8401 22.724L48.4681 23.012C48.4681 23.588 48.3321 24.108 48.0601 24.572C47.7961 25.028 47.4321 25.392 46.9681 25.664C46.5121 25.928 45.9921 26.06 45.4081 26.06ZM45.5041 25.22C45.9681 25.22 46.3801 25.112 46.7401 24.896C47.1081 24.68 47.3961 24.384 47.6041 24.008C47.8201 23.624 47.9281 23.196 47.9281 22.724C47.9281 22.244 47.8201 21.816 47.6041 21.44C47.3961 21.064 47.1081 20.768 46.7401 20.552C46.3801 20.328 45.9681 20.216 45.5041 20.216C45.0481 20.216 44.6361 20.328 44.2681 20.552C43.9001 20.768 43.6081 21.064 43.3921 21.44C43.1761 21.816 43.0681 22.244 43.0681 22.724C43.0681 23.196 43.1761 23.624 43.3921 24.008C43.6081 24.384 43.9001 24.68 44.2681 24.896C44.6361 25.112 45.0481 25.22 45.5041 25.22ZM48.3721 26C48.2361 26 48.1241 25.96 48.0361 25.88C47.9481 25.792 47.9041 25.68 47.9041 25.544V23.492L48.1321 22.544L48.8401 22.724V25.544C48.8401 25.68 48.7961 25.792 48.7081 25.88C48.6201 25.96 48.5081 26 48.3721 26ZM53.5652 26.06C52.9332 26.06 52.3692 25.916 51.8732 25.628C51.3852 25.332 50.9972 24.932 50.7092 24.428C50.4292 23.924 50.2892 23.356 50.2892 22.724C50.2892 22.084 50.4252 21.512 50.6972 21.008C50.9692 20.504 51.3412 20.108 51.8132 19.82C52.2852 19.524 52.8292 19.376 53.4452 19.376C53.9332 19.376 54.3812 19.472 54.7892 19.664C55.2052 19.856 55.5692 20.144 55.8812 20.528C55.9692 20.624 56.0012 20.728 55.9772 20.84C55.9532 20.944 55.8852 21.036 55.7732 21.116C55.6852 21.18 55.5852 21.204 55.4732 21.188C55.3692 21.164 55.2772 21.104 55.1972 21.008C54.7332 20.48 54.1492 20.216 53.4452 20.216C52.9972 20.216 52.6012 20.324 52.2572 20.54C51.9212 20.756 51.6572 21.052 51.4652 21.428C51.2812 21.804 51.1892 22.236 51.1892 22.724C51.1892 23.204 51.2892 23.632 51.4892 24.008C51.6892 24.384 51.9692 24.68 52.3292 24.896C52.6892 25.112 53.1012 25.22 53.5652 25.22C53.8772 25.22 54.1612 25.18 54.4172 25.1C54.6812 25.012 54.9132 24.88 55.1132 24.704C55.2092 24.624 55.3092 24.58 55.4132 24.572C55.5172 24.564 55.6132 24.596 55.7012 24.668C55.7972 24.756 55.8492 24.856 55.8572 24.968C55.8732 25.08 55.8372 25.176 55.7492 25.256C55.1652 25.792 54.4372 26.06 53.5652 26.06ZM60.7616 26.06C60.1136 26.06 59.5376 25.92 59.0336 25.64C58.5376 25.352 58.1456 24.956 57.8576 24.452C57.5776 23.948 57.4376 23.372 57.4376 22.724C57.4376 22.068 57.5696 21.492 57.8336 20.996C58.1056 20.492 58.4776 20.096 58.9496 19.808C59.4216 19.52 59.9656 19.376 60.5816 19.376C61.1896 19.376 61.7176 19.516 62.1656 19.796C62.6216 20.068 62.9736 20.448 63.2216 20.936C63.4696 21.424 63.5936 21.98 63.5936 22.604C63.5936 22.732 63.5536 22.836 63.4736 22.916C63.3936 22.988 63.2896 23.024 63.1616 23.024H58.0616V22.256H63.2576L62.7416 22.628C62.7496 22.164 62.6656 21.748 62.4896 21.38C62.3136 21.012 62.0616 20.724 61.7336 20.516C61.4136 20.308 61.0296 20.204 60.5816 20.204C60.1256 20.204 59.7256 20.312 59.3816 20.528C59.0376 20.744 58.7696 21.044 58.5776 21.428C58.3936 21.804 58.3016 22.236 58.3016 22.724C58.3016 23.212 58.4056 23.644 58.6136 24.02C58.8296 24.396 59.1216 24.692 59.4896 24.908C59.8576 25.124 60.2816 25.232 60.7616 25.232C61.0496 25.232 61.3376 25.184 61.6256 25.088C61.9216 24.984 62.1576 24.856 62.3336 24.704C62.4216 24.632 62.5216 24.596 62.6336 24.596C62.7456 24.588 62.8416 24.616 62.9216 24.68C63.0256 24.776 63.0776 24.88 63.0776 24.992C63.0856 25.104 63.0416 25.2 62.9456 25.28C62.6816 25.504 62.3456 25.692 61.9376 25.844C61.5296 25.988 61.1376 26.06 60.7616 26.06Z" fill="#F2EDFF"/>
<path d="M15.9304 13C15.8024 13 15.6904 12.956 15.5944 12.868C15.5064 12.772 15.4624 12.66 15.4624 12.532V3.628H16.3984V12.532C16.3984 12.66 16.3544 12.772 16.2664 12.868C16.1784 12.956 16.0664 13 15.9304 13ZM12.6184 4.48C12.4904 4.48 12.3864 4.44 12.3064 4.36C12.2264 4.28 12.1864 4.18 12.1864 4.06C12.1864 3.932 12.2264 3.828 12.3064 3.748C12.3864 3.668 12.4904 3.628 12.6184 3.628H19.2544C19.3824 3.628 19.4864 3.668 19.5664 3.748C19.6464 3.828 19.6864 3.932 19.6864 4.06C19.6864 4.18 19.6464 4.28 19.5664 4.36C19.4864 4.44 19.3824 4.48 19.2544 4.48H12.6184ZM26.5777 13C26.4417 13 26.3297 12.956 26.2417 12.868C26.1537 12.78 26.1097 12.672 26.1097 12.544V9.424C26.1097 8.928 26.0137 8.52 25.8217 8.2C25.6377 7.88 25.3817 7.64 25.0537 7.48C24.7337 7.32 24.3697 7.24 23.9617 7.24C23.5697 7.24 23.2137 7.316 22.8937 7.468C22.5817 7.62 22.3337 7.828 22.1497 8.092C21.9657 8.356 21.8737 8.656 21.8737 8.992H21.2137C21.2297 8.488 21.3657 8.04 21.6217 7.648C21.8777 7.248 22.2177 6.936 22.6417 6.712C23.0657 6.48 23.5377 6.364 24.0577 6.364C24.6257 6.364 25.1337 6.484 25.5817 6.724C26.0297 6.956 26.3817 7.3 26.6377 7.756C26.9017 8.212 27.0337 8.768 27.0337 9.424V12.544C27.0337 12.672 26.9897 12.78 26.9017 12.868C26.8137 12.956 26.7057 13 26.5777 13ZM21.4177 13C21.2737 13 21.1577 12.96 21.0697 12.88C20.9897 12.792 20.9497 12.68 20.9497 12.544V6.904C20.9497 6.76 20.9897 6.648 21.0697 6.568C21.1577 6.48 21.2737 6.436 21.4177 6.436C21.5537 6.436 21.6617 6.48 21.7417 6.568C21.8297 6.648 21.8737 6.76 21.8737 6.904V12.544C21.8737 12.68 21.8297 12.792 21.7417 12.88C21.6617 12.96 21.5537 13 21.4177 13ZM21.4177 10.324C21.2737 10.324 21.1577 10.28 21.0697 10.192C20.9897 10.104 20.9497 9.992 20.9497 9.856V4.096C20.9497 3.952 20.9897 3.84 21.0697 3.76C21.1577 3.672 21.2737 3.628 21.4177 3.628C21.5537 3.628 21.6617 3.672 21.7417 3.76C21.8297 3.84 21.8737 3.952 21.8737 4.096V9.856C21.8737 9.992 21.8297 10.104 21.7417 10.192C21.6617 10.28 21.5537 10.324 21.4177 10.324ZM29.4548 8.956C29.4788 8.46 29.6068 8.016 29.8388 7.624C30.0788 7.232 30.3868 6.924 30.7628 6.7C31.1468 6.476 31.5708 6.364 32.0348 6.364C32.4028 6.364 32.6868 6.416 32.8868 6.52C33.0868 6.624 33.1628 6.776 33.1148 6.976C33.0828 7.096 33.0268 7.176 32.9468 7.216C32.8748 7.256 32.7828 7.272 32.6708 7.264C32.5668 7.256 32.4468 7.248 32.3108 7.24C31.8628 7.2 31.4628 7.248 31.1108 7.384C30.7668 7.512 30.4908 7.712 30.2828 7.984C30.0828 8.256 29.9828 8.58 29.9828 8.956H29.4548ZM29.5268 13C29.3828 13 29.2708 12.96 29.1908 12.88C29.1108 12.8 29.0708 12.688 29.0708 12.544V6.892C29.0708 6.748 29.1108 6.636 29.1908 6.556C29.2708 6.476 29.3828 6.436 29.5268 6.436C29.6708 6.436 29.7828 6.476 29.8628 6.556C29.9428 6.636 29.9828 6.748 29.9828 6.892V12.544C29.9828 12.688 29.9428 12.8 29.8628 12.88C29.7828 12.96 29.6708 13 29.5268 13ZM37.0624 13.06C36.4144 13.06 35.8384 12.92 35.3344 12.64C34.8384 12.352 34.4464 11.956 34.1584 11.452C33.8784 10.948 33.7384 10.372 33.7384 9.724C33.7384 9.068 33.8704 8.492 34.1344 7.996C34.4064 7.492 34.7784 7.096 35.2504 6.808C35.7224 6.52 36.2664 6.376 36.8824 6.376C37.4904 6.376 38.0184 6.516 38.4664 6.796C38.9224 7.068 39.2744 7.448 39.5224 7.936C39.7704 8.424 39.8944 8.98 39.8944 9.604C39.8944 9.732 39.8544 9.836 39.7744 9.916C39.6944 9.988 39.5904 10.024 39.4624 10.024H34.3624V9.256H39.5584L39.0424 9.628C39.0504 9.164 38.9664 8.748 38.7904 8.38C38.6144 8.012 38.3624 7.724 38.0344 7.516C37.7144 7.308 37.3304 7.204 36.8824 7.204C36.4264 7.204 36.0264 7.312 35.6824 7.528C35.3384 7.744 35.0704 8.044 34.8784 8.428C34.6944 8.804 34.6024 9.236 34.6024 9.724C34.6024 10.212 34.7064 10.644 34.9144 11.02C35.1304 11.396 35.4224 11.692 35.7904 11.908C36.1584 12.124 36.5824 12.232 37.0624 12.232C37.3504 12.232 37.6384 12.184 37.9264 12.088C38.2224 11.984 38.4584 11.856 38.6344 11.704C38.7224 11.632 38.8224 11.596 38.9344 11.596C39.0464 11.588 39.1424 11.616 39.2224 11.68C39.3264 11.776 39.3784 11.88 39.3784 11.992C39.3864 12.104 39.3424 12.2 39.2464 12.28C38.9824 12.504 38.6464 12.692 38.2384 12.844C37.8304 12.988 37.4384 13.06 37.0624 13.06ZM44.1991 13.06C43.5511 13.06 42.9751 12.92 42.4711 12.64C41.9751 12.352 41.5831 11.956 41.2951 11.452C41.0151 10.948 40.8751 10.372 40.8751 9.724C40.8751 9.068 41.0071 8.492 41.2711 7.996C41.5431 7.492 41.9151 7.096 42.3871 6.808C42.8591 6.52 43.4031 6.376 44.0191 6.376C44.6271 6.376 45.1551 6.516 45.6031 6.796C46.0591 7.068 46.4111 7.448 46.6591 7.936C46.9071 8.424 47.0311 8.98 47.0311 9.604C47.0311 9.732 46.9911 9.836 46.9111 9.916C46.8311 9.988 46.7271 10.024 46.5991 10.024H41.4991V9.256H46.6951L46.1791 9.628C46.1871 9.164 46.1031 8.748 45.9271 8.38C45.7511 8.012 45.4991 7.724 45.1711 7.516C44.8511 7.308 44.4671 7.204 44.0191 7.204C43.5631 7.204 43.1631 7.312 42.8191 7.528C42.4751 7.744 42.2071 8.044 42.0151 8.428C41.8311 8.804 41.7391 9.236 41.7391 9.724C41.7391 10.212 41.8431 10.644 42.0511 11.02C42.2671 11.396 42.5591 11.692 42.9271 11.908C43.2951 12.124 43.7191 12.232 44.1991 12.232C44.4871 12.232 44.7751 12.184 45.0631 12.088C45.3591 11.984 45.5951 11.856 45.7711 11.704C45.8591 11.632 45.9591 11.596 46.0711 11.596C46.1831 11.588 46.2791 11.616 46.3591 11.68C46.4631 11.776 46.5151 11.88 46.5151 11.992C46.5231 12.104 46.4791 12.2 46.3831 12.28C46.1191 12.504 45.7831 12.692 45.3751 12.844C44.9671 12.988 44.5751 13.06 44.1991 13.06Z" fill="#F2EDFF"/>
<line x1="79.5" y1="40.5" x2="73.5" y2="40.5" stroke="#F2EDFF" stroke-linecap="round"/>
<line x1="79.5" y1="27.5" x2="69.5" y2="27.5" stroke="#F2EDFF" stroke-linecap="round"/>
<line x1="79.5" y1="14.5" x2="50.5" y2="14.5" stroke="#F2EDFF" stroke-linecap="round"/>
<line x1="79.5" y1="1.5" x2="73.5" y2="1.5" stroke="#F2EDFF" stroke-linecap="round"/>
<line x1="79.5" y1="40.5" x2="79.5" y2="1.5" stroke="#F2EDFF" stroke-linecap="round"/>
<line x1="7.50641" y1="40.5" x2="1.50641" y2="40.5" stroke="#F2EDFF" stroke-linecap="round"/>
<line x1="22.5066" y1="27.5002" x2="1.50664" y2="27.5094" stroke="#F2EDFF" stroke-linecap="round"/>
<line x1="11.5064" y1="14.5" x2="1.50641" y2="14.5" stroke="#F2EDFF" stroke-linecap="round"/>
<line x1="7.50641" y1="1.5" x2="1.50641" y2="1.5" stroke="#F2EDFF" stroke-linecap="round"/>
<path d="M1.50641 40.5L1.50641 1.5" stroke="#F2EDFF" stroke-linecap="round"/>
</svg>